<svg width="106" height="104" viewBox="0 0 106 104" fill="none" xmlns="http://www.w3.org/2000/svg">
<path d="M38 68L49.25 56.75H64.25C70.4525 56.75 75.5 51.7025 75.5 45.5V11.75C75.5 5.5475 70.4525 0.5 64.25 0.5H11.75C5.5475 0.5 0.5 5.5475 0.5 11.75V45.5C0.5 51.7025 5.5475 56.75 11.75 56.75H26.75L38 68ZM24.875 19.25H51.125C52.16 19.25 53 20.09 53 21.125C53 22.16 52.16 23 51.125 23H24.875C23.84 23 23 22.16 23 21.125C23 20.09 23.84 19.25 24.875 19.25ZM24.875 26.75H51.125C52.16 26.75 53 27.59 53 28.625C53 29.66 52.16 30.5 51.125 30.5H24.875C23.84 30.5 23 29.66 23 28.625C23 27.59 23.84 26.75 24.875 26.75ZM24.875 38C23.84 38 23 37.16 23 36.125C23 35.09 23.84 34.25 24.875 34.25H51.125C52.16 34.25 53 35.09 53 36.125C53 37.16 52.16 38 51.125 38H24.875ZM94.25 38H79.25V45.5C79.25 53.7725 72.5225 60.5 64.25 60.5H50.8025L40.6512 70.6512C39.92 71.3825 38.96 71.75 38 71.75C37.04 71.75 36.08 71.3825 35.3488 70.6512L30.5 65.8025V83C30.5 89.2137 35.5363 94.25 41.75 94.25H56.75L65.3488 102.849C66.815 104.315 69.1888 104.315 70.6513 102.849L79.25 94.25H94.25C100.464 94.25 105.5 89.2137 105.5 83V49.25C105.5 43.0362 100.464 38 94.25 38ZM81.125 75.5H54.875C53.84 75.5 53 74.66 53 73.625C53 72.59 53.84 71.75 54.875 71.75H81.125C82.16 71.75 83 72.59 83 73.625C83 74.66 82.16 75.5 81.125 75.5ZM81.125 68H54.875C53.84 68 53 67.16 53 66.125C53 65.09 53.84 64.25 54.875 64.25H81.125C82.16 64.25 83 65.09 83 66.125C83 67.16 82.16 68 81.125 68Z" fill="#00633F"/>
</svg>
