<svg width="158" height="109" viewBox="0 0 158 109" fill="none" xmlns="http://www.w3.org/2000/svg">
<path d="M110.628 21.3752C107.689 20.3716 104.835 19.3394 102.084 18.298C101.058 39.4394 100.248 51.4752 93.758 62.8877C92.1658 65.6843 90.3076 68.3574 88.0505 71.0944C89.1641 71.3418 90.2851 71.6509 91.4059 72.0337C102.069 75.6723 108.601 84.1906 105.996 91.0588L78.0195 81.5106C74.9876 84.3333 71.5146 87.3845 67.5098 90.7996C70.3962 95.9079 73.7639 101.67 77.6511 108.298L77.6636 108.269C138.933 85.5654 133.734 86.8354 157.51 33.1088C157.51 33.1113 135.682 29.9247 110.628 21.3752ZM109.615 51.7558C109.615 51.7558 116.501 44.6119 122.514 43.8223C128.528 43.0351 135.678 46.4143 134.697 51.2752C131.858 65.3276 109.615 51.7558 109.615 51.7558Z" fill="black"/>
<path d="M90.4905 0C90.4905 0 70.2963 3.74599 45.4905 3.74599C20.6847 3.74599 0.490479 0.0133053 0.490479 0.0133053C3.46208 54.3449 -0.672869 51.6849 45.4975 90L45.4999 89.9711C91.6538 51.6581 87.5186 54.3318 90.4905 0ZM63.3741 19.9027C68.383 17.4067 75.7746 18.2328 76.5315 22.7982C78.7206 35.9926 54.7043 30.7389 54.7043 30.7389C54.7043 30.7389 58.3652 22.3984 63.3741 19.9027ZM14.447 22.8003C15.2039 18.2326 22.5957 17.409 27.6046 19.9047C32.6133 22.4004 36.2742 30.7408 36.2742 30.7408C36.2742 30.7408 12.2603 35.9946 14.447 22.8003ZM45.4905 66.3537C34.9332 66.3537 26.3732 60.8291 26.3732 54.012H64.6075C64.6075 60.8291 56.0477 66.3537 45.4905 66.3537Z" fill="#00633F"/>
</svg>
