<svg width="106" height="104" viewBox="0 0 106 104" fill="none" xmlns="http://www.w3.org/2000/svg">
<path d="M105.296 8.19064C105.296 3.76401 101.937 0.174927 97.7923 0.174927H7.8C3.65618 0.174927 0.296387 3.76345 0.296387 8.19064V29.338H5.87477V91.9832C5.87477 98.1548 10.5742 103.175 16.3514 103.175H87.4902C93.267 103.175 97.9669 98.1548 97.9669 91.9832V29.338H105.296L105.296 8.19064ZM91.6673 91.9838C91.6673 94.444 89.7937 96.4454 87.4907 96.4454H16.352C14.049 96.4454 12.1754 94.444 12.1754 91.9838V29.338H91.6673V91.9838Z" fill="#00633F"/>
<path d="M36.083 52.1817H68.1903C71.4879 52.1817 74.1609 49.5081 74.1609 46.2111C74.1609 42.9135 71.4879 40.2405 68.1903 40.2405H36.083C32.786 40.2405 30.113 42.9135 30.113 46.2111C30.1124 49.5081 32.7854 52.1817 36.083 52.1817Z" fill="black"/>
</svg>
