<svg width="44" height="36" viewBox="0 0 44 36" fill="none" xmlns="http://www.w3.org/2000/svg">
<path d="M22 7.46678C19.7998 4.83027 16.4081 2.19376 8.00238 2.00029C7.45026 1.98759 7 2.40982 7 2.92979C7 6.78709 7 21.3903 7 25.7091C7 26.229 7.4503 26.6375 8.00228 26.6544C16.4081 26.9131 19.7998 30.4219 22 33.0585M22 7.46678C24.2002 4.83027 27.5918 2.19376 35.9976 2.00029C36.5498 1.98759 37 2.40033 37 2.9203C37 7.23212 37 21.3959 37 25.7078C37 26.2277 36.5498 26.6375 35.9978 26.6544C27.592 26.9131 24.2002 30.4219 22 33.0585M22 7.46678V33.0585" stroke="white" stroke-width="3.5" stroke-linejoin="round"/>
<path d="M36.4706 5.75494H41C41.5522 5.75494 42 6.17647 42 6.69645V31.2489C42 32.0108 41.0466 32.5169 40.307 32.2076C38.7168 31.5423 36.063 30.7296 32.5882 30.7296C26.7058 30.7296 22 34 22 34C22 34 17.2941 30.7296 11.4118 30.7296C7.9369 30.7296 5.28312 31.5423 3.69294 32.2076C2.95336 32.5169 2 32.0108 2 31.2489V6.69645C2 6.17647 2.44772 5.75494 3 5.75494H7.52942" stroke="white" stroke-width="3.5" stroke-linejoin="round"/>
</svg>
