<svg width="16" height="20" viewBox="0 0 16 20" fill="none" xmlns="http://www.w3.org/2000/svg">
<path d="M8 0L9.19183 5.90201C9.33725 6.62222 9.41 6.98232 9.5535 7.27672C9.6805 7.53721 9.84708 7.75929 10.0425 7.92867C10.2632 8.12 10.5333 8.217 11.0735 8.41089L15.5 10L11.0735 11.5891C10.5333 11.783 10.2632 11.88 10.0425 12.0713C9.84708 12.2407 9.6805 12.4628 9.5535 12.7233C9.41 13.0177 9.33725 13.3778 9.19183 14.098L8 20L6.80817 14.098C6.66275 13.3778 6.59 13.0177 6.4465 12.7233C6.31947 12.4628 6.15291 12.2407 5.95754 12.0713C5.73674 11.88 5.46667 11.783 4.92651 11.5891L0.5 10L4.92651 8.41089C5.46667 8.217 5.73674 8.12 5.95754 7.92867C6.15291 7.75929 6.31947 7.53721 6.4465 7.27672C6.59 6.98232 6.66275 6.62222 6.80817 5.90201L8 0Z" fill="black"/>
</svg>
