<svg width="24" height="25" viewBox="0 0 24 25" fill="none" xmlns="http://www.w3.org/2000/svg">
<path d="M17 2.5H7C4.23858 2.5 2 4.73858 2 7.5V17.5C2 20.2614 4.23858 22.5 7 22.5H17C19.7614 22.5 22 20.2614 22 17.5V7.5C22 4.73858 19.7614 2.5 17 2.5Z" stroke="white" stroke-width="2" stroke-linecap="round" stroke-linejoin="round"/>
<path d="M16.0002 11.8701C16.1236 12.7023 15.9815 13.5523 15.594 14.2991C15.2065 15.0459 14.5933 15.6515 13.8418 16.0297C13.0903 16.408 12.2386 16.5397 11.408 16.406C10.5773 16.2723 9.80996 15.8801 9.21503 15.2852C8.62011 14.6903 8.22793 13.9229 8.09426 13.0923C7.9606 12.2616 8.09226 11.41 8.47052 10.6584C8.84878 9.90691 9.45438 9.2938 10.2012 8.9063C10.948 8.5188 11.7979 8.37665 12.6302 8.50006C13.4791 8.62594 14.265 9.02152 14.8719 9.62836C15.4787 10.2352 15.8743 11.0211 16.0002 11.8701Z" stroke="white" stroke-width="2" stroke-linecap="round" stroke-linejoin="round"/>
<path d="M17.5 7H17.51" stroke="white" stroke-width="2" stroke-linecap="round" stroke-linejoin="round"/>
</svg>
